# xmcd
#
# Track frame offsets:
#	150
#	15788
#	35363
#	50345
#	65929
#	86524
#	101879
#	117711
#	130613
#	147638
#
# Disc length: 2208 seconds
#
# Revision: 0
# Processed by: cddbd v1.5.1PL0 Copyright (c) Steve Scherf et al.
# Submitted via: audiograbber 1.83.01
#
DISCID=8c089e0a
DTITLE=Patty Loveless - The Trouble With The Truth
DYEAR=1996
DGENRE=Country
TTITLE0=Tear Stained Letter
TTITLE1=The Trouble With The Truth
TTITLE2=I Miss Who I Was (With You)
TTITLE3=Everybody's Equal In The Eyes Of Love
TTITLE4=Lonely Too Long
TTITLE5=You Can Feel Bad
TTITLE6=A Thousand Times A Day
TTITLE7=She Drew A Broken Heart
TTITLE8=To Feel That Way At All
TTITLE9=Someday I Will Lead The Parade
EXTD=YEAR: 1996
EXTT0=
EXTT1=
EXTT2=
EXTT3=
EXTT4=
EXTT5=
EXTT6=
EXTT7=
EXTT8=
EXTT9=
PLAYORDER=
